<svg width="670" height="520" viewBox="0 0 670 520" fill="none" xmlns="http://www.w3.org/2000/svg">
<g filter="url(#filter0_d)">
<mask id="path-1-inside-1" fill="white">
<path fill-rule="evenodd" clip-rule="evenodd" d="M40 0C34.4772 0 30 4.47715 30 10V495C30 500.523 34.4772 505 40 505H284.793L304.279 525.251C304.673 525.66 305.327 525.66 305.721 525.251L325.207 505H1100C1105.52 505 1110 500.523 1110 495V10C1110 4.47715 1105.52 0 1100 0H40Z"/>
</mask>
<path fill-rule="evenodd" clip-rule="evenodd" d="M40 0C34.4772 0 30 4.47715 30 10V495C30 500.523 34.4772 505 40 505H284.793L304.279 525.251C304.673 525.66 305.327 525.66 305.721 525.251L325.207 505H1100C1105.52 505 1110 500.523 1110 495V10C1110 4.47715 1105.52 0 1100 0H40Z" fill="white"/>
<path d="M284.793 505L286.234 503.613L285.644 503H284.793V505ZM304.279 525.251L302.838 526.638H302.838L304.279 525.251ZM305.721 525.251L307.162 526.638H307.162L305.721 525.251ZM325.207 505V503H324.356L323.766 503.613L325.207 505ZM32 10C32 5.58172 35.5817 2 40 2V-2C33.3726 -2 28 3.37258 28 10H32ZM32 495V10H28V495H32ZM40 503C35.5817 503 32 499.418 32 495H28C28 501.627 33.3726 507 40 507V503ZM284.793 503H40V507H284.793V503ZM305.721 523.864L286.234 503.613L283.352 506.387L302.838 526.638L305.721 523.864ZM304.279 523.864C304.673 523.456 305.327 523.456 305.721 523.864L302.838 526.638C304.018 527.864 305.982 527.864 307.162 526.638L304.279 523.864ZM323.766 503.613L304.279 523.864L307.162 526.638L326.648 506.387L323.766 503.613ZM1100 503H325.207V507H1100V503ZM1108 495C1108 499.418 1104.42 503 1100 503V507C1106.63 507 1112 501.627 1112 495H1108ZM1108 10V495H1112V10H1108ZM1100 2C1104.42 2 1108 5.58172 1108 10H1112C1112 3.37258 1106.63 -2 1100 -2V2ZM40 2H1100V-2H40V2Z" fill="#FFE8FD" mask="url(#path-1-inside-1)"/>
</g>
<defs>
<filter id="filter0_d" x="0" y="0" width="670" height="520.558" filterUnits="userSpaceOnUse" color-interpolation-filters="sRGB">
<feFlood flood-opacity="0" result="BackgroundImageFix"/>
<feColorMatrix in="SourceAlpha" type="matrix" values="0 0 0 0 0 0 0 0 0 0 0 0 0 0 0 0 0 0 127 0"/>
<feOffset dy="30"/>
<feGaussianBlur stdDeviation="15"/>
<feColorMatrix type="matrix" values="0 0 0 0 0.997685 0 0 0 0 0.979167 0 0 0 0 1 0 0 0 1 0"/>
<feBlend mode="normal" in2="BackgroundImageFix" result="effect1_dropShadow"/>
<feBlend mode="normal" in="SourceGraphic" in2="effect1_dropShadow" result="shape"/>
</filter>
</defs>
</svg>
