<svg width="100" height="100" viewBox="0 0 100 100" fill="none" xmlns="http://www.w3.org/2000/svg">
<circle cx="50" cy="50" r="48.5" fill="white" stroke="#FFD3FD" stroke-width="3"/>
<path d="M51.5522 20C41.8344 20 36.228 22.9328 32.4904 29.7353C28.9947 37.4603 28.952 41.6376 28.952 46.8381C29.234 52.7611 30.8421 57.5655 34.2059 62.7279C33.0804 63.536 31.7974 65.0292 30.8421 66.0261C30.11 66.796 29.5608 67.7153 29.234 68.7181C28.9072 69.7209 28.8109 70.7823 28.952 71.8259C29.0932 72.8695 29.4682 73.8695 30.0502 74.7541C30.6323 75.6387 31.4068 76.3858 32.3183 76.9418C36.8845 79.7084 42.8334 81.1111 50 81.1111C57.1666 81.1111 63.1156 79.7084 67.6817 76.9418C68.5932 76.3858 69.3677 75.6387 69.9498 74.7541C70.5318 73.8696 70.9069 72.8696 71.048 71.8259C71.1892 70.7823 71.0929 69.7209 70.7661 68.7181C70.4393 67.7153 69.8901 66.796 69.158 66.0261C68.2027 65.0292 66.5223 63.7565 65.3968 62.9483C69.158 57.5655 70.6065 53.5578 70.6065 48.228C70.6065 43.0275 70.5707 39.1907 68.4029 31.8037C66.983 26.9653 61.27 20 51.5522 20ZM65.7941 73.9446C62.0733 76.199 56.9786 77.5882 50 77.5882C43.0215 77.5882 37.9268 76.199 34.2059 73.9446C33.747 73.6627 33.3572 73.2849 33.0644 72.838C32.7716 72.3912 32.5831 71.8865 32.5123 71.3599C32.4415 70.8333 32.4902 70.2979 32.6549 69.7919C32.8196 69.2859 33.0962 68.8218 33.465 68.4329C35.9127 65.9312 39.5897 63.9288 42.963 62.8918C45.1852 67.2884 48.1482 67.6521 50.3704 67.6521C52.5926 67.6521 55.5556 66.9246 57.4074 63.0391C60.7807 64.076 64.0873 65.9312 66.535 68.4329C66.9038 68.8218 67.1805 69.2859 67.3452 69.7919C67.5099 70.2979 67.5586 70.8333 67.4878 71.3599C67.417 71.8865 67.2285 72.3912 66.9357 72.838C66.6429 73.2849 66.2531 73.6627 65.7941 73.9446ZM39.0758 46.8381C39.0758 45.7004 39.0766 44.4195 39.1539 43.0928C44.9446 41.4794 50.1009 38.1827 53.943 33.6373C55.645 36.4084 57.9135 38.8039 60.6056 40.6731C60.8615 42.718 60.968 44.7783 60.9242 46.8381C60.9259 48.2463 60.6446 49.6409 60.0963 50.9423C59.5481 52.2438 58.7437 53.4265 57.7291 54.4227C56.7145 55.419 55.5097 56.2094 54.1834 56.7487C52.8572 57.2879 51.4356 57.5655 50 57.5655C48.5643 57.5655 47.1427 57.2879 45.8165 56.7487C44.4903 56.2094 43.2854 55.419 42.2709 54.4227C41.2563 53.4265 40.4519 52.2438 39.9036 50.9423C39.3554 49.6409 39.0741 48.2463 39.0758 46.8381ZM45.8436 60.4904C48.5548 61.2882 51.4452 61.2882 54.1564 60.4904C54.4445 60.7407 54.4138 62.2731 54.1685 62.8918C54.0528 63.1838 53.9471 63.5725 53.421 63.9916C52.8949 64.4108 52.0731 65.1058 50.3704 65.1058C48.5968 65.1058 46.5603 64.6027 45.926 62.9233C45.6511 62.1958 45.6836 61.2369 45.8436 60.4904ZM62.9263 61.4089C61.243 60.5412 59.4699 59.8529 57.6372 59.3557C57.6184 59.2334 57.6015 59.1141 57.5793 58.9862C58.7889 58.2554 59.8835 57.3556 60.8286 56.3151C60.8693 56.2705 60.9083 56.2245 60.9484 56.1794C61.0755 56.036 61.1998 55.8903 61.3215 55.7423C61.3826 55.6678 61.4428 55.5926 61.5022 55.5167C61.6035 55.3877 61.7023 55.2568 61.7987 55.1241C61.8571 55.0443 61.9161 54.9652 61.9727 54.8842C62.0873 54.7204 62.1974 54.5534 62.3051 54.3848C62.335 54.3378 62.367 54.2924 62.3964 54.2451C62.5364 54.0202 62.6698 53.7911 62.7967 53.5578C62.8126 53.5285 62.8273 53.4984 62.8431 53.4689C62.9577 53.2559 63.0667 53.0397 63.1702 52.8205C63.184 52.7911 63.1973 52.7616 63.2109 52.7322C64.0721 50.8821 64.5172 48.8719 64.516 46.8381C64.5617 44.6099 64.4429 42.3813 64.1606 40.1699L63.9385 38.6601L62.664 37.786C60.3814 36.1929 58.4569 34.1567 57.0099 31.8037L54.3383 27.5043L51.1358 31.4394C47.7435 35.4182 43.2085 38.3031 38.1212 39.7186L35.7116 40.4281L35.568 42.8916C35.484 44.3326 35.484 45.7218 35.484 46.8381C35.4828 48.849 35.918 50.8372 36.7606 52.6705C36.7744 52.7007 36.7883 52.731 36.8024 52.7611C36.9014 52.9729 37.0054 53.1817 37.1145 53.3878C37.1374 53.4313 37.1594 53.4752 37.1828 53.5185C37.3073 53.7477 37.4365 53.9742 37.5731 54.1958L37.5853 54.2166C37.721 54.4357 37.8636 54.6501 38.0107 54.8613C38.0627 54.9359 38.1174 55.0085 38.1708 55.0821C38.2721 55.2218 38.3751 55.3602 38.4813 55.4961C38.5392 55.5701 38.5979 55.6434 38.6574 55.716C38.7775 55.8636 38.9006 56.0086 39.0266 56.1511C39.0695 56.1996 39.1114 56.2487 39.1549 56.2965C40.1037 57.3448 41.204 58.251 42.4207 58.9863C42.3985 59.1141 42.3816 59.2334 42.3629 59.3557C40.5301 59.8529 38.757 60.5412 37.0737 61.4089C34.733 59.2259 34.2161 57.8568 33.2379 55.5599C33.2379 55.5599 31.7429 51.5274 31.3691 48.228C30.8293 43.4622 31.5971 22.0566 50 22.0566C68.4029 22.0566 68.4029 38.5684 68.4029 48.5491C68.406 50.9419 67.9233 53.3113 66.983 55.5191C66.0428 57.727 64.6637 59.7292 62.9263 61.4089Z" fill="black"/>
<path d="M65.7941 73.9446C62.0733 76.199 56.9786 77.5882 50 77.5882C43.0215 77.5882 37.9268 76.199 34.2059 73.9446C33.747 73.6627 33.3572 73.2848 33.0644 72.838C32.7716 72.3912 32.5831 71.8865 32.5123 71.3599C32.4415 70.8333 32.4902 70.2979 32.6549 69.7919C32.8196 69.2859 33.0962 68.8218 33.465 68.4329C35.9127 65.9312 39.5897 63.9288 42.963 62.8918C45.1852 67.2884 48.1482 67.6521 50.3704 67.6521C52.5926 67.6521 55.5556 66.9246 57.4074 63.0391C60.7807 64.076 64.0873 65.9312 66.535 68.4329C66.9038 68.8218 67.1805 69.2859 67.3452 69.7919C67.5099 70.2979 67.5586 70.8333 67.4878 71.3599C67.417 71.8865 67.2285 72.3912 66.9357 72.838C66.6429 73.2848 66.2531 73.6627 65.7941 73.9446Z" fill="#BB30AD"/>
<path d="M45.8436 60.4904C48.5548 61.2882 51.4452 61.2882 54.1564 60.4904C54.4445 60.7407 54.4138 62.2731 54.1685 62.8918C54.0528 63.1838 53.9471 63.5725 53.421 63.9916C52.8949 64.4108 52.0731 65.1058 50.3704 65.1058C48.5968 65.1058 46.5603 64.6027 45.926 62.9233C45.6511 62.1958 45.6836 61.2369 45.8436 60.4904Z" fill="#F2D7C4"/>
<path d="M39.0758 46.8381C39.0758 45.7004 39.0766 44.4195 39.1539 43.0928C44.9446 41.4794 50.1009 38.1827 53.943 33.6373C55.645 36.4084 57.9135 38.8039 60.6056 40.6731C60.8615 42.718 60.968 44.7783 60.9242 46.8381C60.9259 48.2463 60.6446 49.6409 60.0963 50.9423C59.5481 52.2438 58.7437 53.4265 57.7291 54.4227C56.7145 55.419 55.5097 56.2094 54.1834 56.7487C52.8572 57.2879 51.4356 57.5655 50 57.5655C48.5643 57.5655 47.1427 57.2879 45.8165 56.7487C44.4903 56.2094 43.2854 55.419 42.2709 54.4227C41.2563 53.4265 40.4519 52.2438 39.9036 50.9423C39.3554 49.6409 39.0741 48.2463 39.0758 46.8381Z" fill="#FCDDC7"/>
<path d="M62.9263 61.4089C61.243 60.5412 59.4699 59.8529 57.6372 59.3557C57.6184 59.2334 57.6015 59.1141 57.5793 58.9862C58.7889 58.2554 59.8835 57.3556 60.8286 56.3151C60.8693 56.2705 60.9083 56.2245 60.9484 56.1794C61.0755 56.036 61.1998 55.8903 61.3215 55.7423C61.3826 55.6678 61.4428 55.5926 61.5022 55.5167C61.6035 55.3877 61.7023 55.2568 61.7988 55.1241C61.8571 55.0443 61.9161 54.9652 61.9727 54.8842C62.0873 54.7204 62.1974 54.5534 62.3051 54.3848C62.335 54.3378 62.367 54.2924 62.3964 54.2451C62.5364 54.0202 62.6698 53.7911 62.7967 53.5578C62.8126 53.5285 62.8273 53.4984 62.8431 53.4689C62.9577 53.2559 63.0667 53.0397 63.1702 52.8205C63.184 52.7911 63.1973 52.7616 63.2109 52.7322C64.0721 50.8821 64.5172 48.8719 64.516 46.8381C64.5617 44.6099 64.4429 42.3813 64.1606 40.1699L63.9385 38.6601L62.664 37.786C60.3814 36.1929 58.4569 34.1567 57.01 31.8037L54.3383 27.5043L51.1358 31.4394C47.7435 35.4182 43.2085 38.3031 38.1212 39.7186L35.7116 40.4281L35.568 42.8916C35.484 44.3325 35.484 45.7218 35.484 46.8381C35.4828 48.849 35.918 50.8372 36.7606 52.6705C36.7744 52.7007 36.7883 52.731 36.8024 52.7611C36.9014 52.9729 37.0054 53.1817 37.1145 53.3878C37.1374 53.4312 37.1594 53.4752 37.1828 53.5185C37.3073 53.7477 37.4365 53.9742 37.5731 54.1958L37.5853 54.2166C37.721 54.4357 37.8636 54.6501 38.0107 54.8613C38.0627 54.9359 38.1174 55.0085 38.1708 55.0821C38.2721 55.2218 38.3751 55.3602 38.4813 55.4961C38.5392 55.5701 38.5979 55.6434 38.6574 55.716C38.7775 55.8636 38.9006 56.0086 39.0266 56.1511C39.0695 56.1996 39.1114 56.2487 39.1549 56.2965C40.1037 57.3448 41.204 58.251 42.4207 58.9863C42.3985 59.1141 42.3816 59.2334 42.3629 59.3557C40.5301 59.8529 38.757 60.5412 37.0737 61.4089C34.733 59.2259 34.2161 57.8568 33.2379 55.5599C33.2379 55.5599 31.7429 51.5274 31.3691 48.228C30.8293 43.4622 31.5971 22.0566 50 22.0566C68.4029 22.0566 68.4029 38.5684 68.4029 48.5491C68.406 50.9419 67.9233 53.3113 66.983 55.5191C66.0428 57.727 64.6637 59.7292 62.9263 61.4089Z" fill="#4A2C23"/>
</svg>
