<svg width="109" height="55" viewBox="0 0 109 55" fill="none" xmlns="http://www.w3.org/2000/svg">
<path d="M87.8839 29.8839C88.372 29.3957 88.372 28.6043 87.8839 28.1161L79.9289 20.1612C79.4408 19.673 78.6493 19.673 78.1612 20.1612C77.673 20.6493 77.673 21.4408 78.1612 21.9289L85.2322 29L78.1612 36.0711C77.673 36.5592 77.673 37.3507 78.1612 37.8388C78.6493 38.327 79.4408 38.327 79.9289 37.8388L87.8839 29.8839ZM86 30.25L87 30.25L87 27.75L86 27.75L86 30.25Z" fill="#8A8A8A"/>
<path d="M13.98 22V36H12.76L3.76 24.64V36H2.28V22H3.5L12.52 33.36V22H13.98ZM28.4495 34.72V36H18.5495V22H28.1495V23.28H20.0295V28.26H27.2695V29.52H20.0295V34.72H28.4495ZM40.5327 36L36.0127 29.84L31.5127 36H29.8127L35.1327 28.8L30.1527 22H31.8527L36.0727 27.72L40.2727 22H41.8727L36.9127 28.76L42.2527 36H40.5327ZM46.9922 23.28H42.0722V22H53.3922V23.28H48.4722V36H46.9922V23.28Z" fill="#8A8A8A"/>
</svg>
