<svg width="113" height="55" viewBox="0 0 113 55" fill="none" xmlns="http://www.w3.org/2000/svg">
<path d="M21.1161 28.1161C20.628 28.6043 20.628 29.3957 21.1161 29.8839L29.0711 37.8388C29.5592 38.327 30.3507 38.327 30.8388 37.8388C31.327 37.3507 31.327 36.5592 30.8388 36.0711L23.7678 29L30.8388 21.9289C31.327 21.4408 31.327 20.6493 30.8388 20.1612C30.3507 19.673 29.5592 19.673 29.0711 20.1612L21.1161 28.1161ZM23 27.75L22 27.75L22 30.25L23 30.25L23 27.75Z" fill="#8A8A8A"/>
<path d="M66.1 28.78C67.02 28.98 67.7267 29.38 68.22 29.98C68.7267 30.5667 68.98 31.3267 68.98 32.26C68.98 33.46 68.5333 34.3867 67.64 35.04C66.76 35.68 65.4533 36 63.72 36H57.28V22H63.32C64.88 22 66.0867 22.3133 66.94 22.94C67.8067 23.5667 68.24 24.4533 68.24 25.6C68.24 26.3733 68.0467 27.0333 67.66 27.58C67.2867 28.1133 66.7667 28.5133 66.1 28.78ZM58.76 23.22V28.3H63.22C64.3533 28.3 65.2267 28.0867 65.84 27.66C66.4533 27.22 66.76 26.5867 66.76 25.76C66.76 24.9333 66.4533 24.3067 65.84 23.88C65.2267 23.44 64.3533 23.22 63.22 23.22H58.76ZM63.7 34.78C64.9533 34.78 65.9 34.5667 66.54 34.14C67.18 33.7133 67.5 33.0467 67.5 32.14C67.5 30.3933 66.2333 29.52 63.7 29.52H58.76V34.78H63.7ZM81.1381 32.26H73.3381L71.6581 36H70.1181L76.5181 22H77.9781L84.3781 36H82.8181L81.1381 32.26ZM80.5981 31.06L77.2381 23.54L73.8781 31.06H80.5981ZM92.5788 36.12C91.1921 36.12 89.9388 35.8133 88.8188 35.2C87.7121 34.5867 86.8388 33.74 86.1988 32.66C85.5721 31.5667 85.2588 30.3467 85.2588 29C85.2588 27.6533 85.5721 26.44 86.1988 25.36C86.8388 24.2667 87.7188 23.4133 88.8388 22.8C89.9588 22.1867 91.2121 21.88 92.5988 21.88C93.6388 21.88 94.5988 22.0533 95.4788 22.4C96.3588 22.7467 97.1054 23.2533 97.7188 23.92L96.7788 24.86C95.6854 23.7533 94.3054 23.2 92.6388 23.2C91.5321 23.2 90.5254 23.4533 89.6188 23.96C88.7121 24.4667 87.9988 25.16 87.4788 26.04C86.9721 26.92 86.7188 27.9067 86.7188 29C86.7188 30.0933 86.9721 31.08 87.4788 31.96C87.9988 32.84 88.7121 33.5333 89.6188 34.04C90.5254 34.5467 91.5321 34.8 92.6388 34.8C94.3188 34.8 95.6988 34.24 96.7788 33.12L97.7188 34.06C97.1054 34.7267 96.3521 35.24 95.4588 35.6C94.5788 35.9467 93.6188 36.12 92.5788 36.12ZM105.214 29.42L102.354 32.32V36H100.874V22H102.354V30.46L110.574 22H112.274L106.214 28.34L112.694 36H110.934L105.214 29.42Z" fill="#8A8A8A"/>
</svg>
