<svg width="100" height="100" viewBox="0 0 100 100" fill="none" xmlns="http://www.w3.org/2000/svg">
<circle cx="50" cy="50" r="48.5" fill="white" stroke="#FFD3FD" stroke-width="3"/>
<path d="M30.9429 66.4976C30.2146 67.2834 29.6683 68.2218 29.3433 69.2453C29.0182 70.2688 28.9224 71.3521 29.0628 72.4174C29.2032 73.4826 29.5762 74.5033 30.1552 75.4062C30.7342 76.309 31.5046 77.0716 32.4113 77.6392C36.9535 80.463 42.8711 81.8947 50 81.8947C57.1289 81.8947 63.0466 80.463 67.5887 77.6392C68.4953 77.0717 69.2658 76.3091 69.8448 75.4062C70.4237 74.5034 70.7968 73.4827 70.9372 72.4174C71.0776 71.3522 70.9818 70.2689 70.6568 69.2453C70.3317 68.2218 69.7854 67.2834 69.0571 66.4976C65.9869 63.2754 62.1105 60.9457 57.8357 59.7535C58.8571 59.0938 59.7911 58.3061 60.6152 57.4094C61.4957 56.612 62.2777 55.7109 62.9444 54.7256L63.5385 54.0211C67.6842 50.2105 68.4211 46.1579 68.7895 41C68.7895 41 69.2113 33.6312 66.2105 27.7368C63.3166 22.947 58.6501 20 50 20C41.3499 20 35.755 23.9033 33.2398 29.155C30.7245 34.4067 31.2105 42.7079 31.2105 42.7079C31.2105 42.7079 31.6417 48.2532 35.3259 52.6894L37.0556 54.7255C37.0556 54.7255 38.5063 56.6143 39.3882 57.4125C40.2115 58.3079 41.1443 59.0945 42.1643 59.7535C37.8896 60.9457 34.0132 63.2754 30.9429 66.4976ZM50 22.5789C66.7603 22.5789 66.7603 34.1276 66.7603 40.9864C66.7497 42.7488 66.261 45.8323 65.3469 47.3356C65.3512 47.1947 65.3583 47.0545 65.3583 46.9126C65.4661 43.8405 65.1753 40.7673 64.4931 37.771C64.3508 37.2372 64.0883 36.7437 63.7258 36.3287C63.3633 35.9137 62.9106 35.5883 62.403 35.3778C60.6701 34.7073 59.0488 33.7748 57.5951 32.6126C57.1552 32.2385 56.6319 31.9769 56.0699 31.8503C55.5079 31.7236 54.9237 31.7355 54.3673 31.885C53.8108 32.0346 53.2985 32.3173 52.874 32.7091C52.4496 33.1009 52.1255 33.5901 51.9294 34.1352C51.8537 34.3473 51.7899 34.5636 51.7382 34.7829C49.8988 33.6485 48.3539 32.09 47.231 30.2362C46.7864 29.4493 46.0632 28.8603 45.2059 28.5867C44.3485 28.3132 43.4202 28.3753 42.6064 28.7607L42.5741 28.7754C42.4851 28.8158 42.3965 28.8571 42.3111 28.9001C41.5912 29.263 41.0142 29.86 40.6737 30.5943C40.3331 31.3286 40.249 32.1571 40.4348 32.9455C39.6557 32.7941 38.8487 32.9081 38.1411 33.2694C37.4335 33.6307 36.8655 34.2188 36.5267 34.9409C34.6418 38.9589 34.6418 43.556 34.6418 46.9126C34.6418 47.0544 34.6488 47.1947 34.6531 47.3356C33.7391 45.8323 33.2504 44.1062 33.2398 42.3439C33.2397 35.4851 33.2397 22.5789 50 22.5789ZM45.9408 60.9386C48.6032 61.6313 51.3969 61.6313 54.0593 60.9386C54.2351 62.0861 54.2964 63.2481 53.9668 63.7881C53.4266 64.6731 51.032 64.9375 50 64.9375C48.968 64.9375 46.5734 64.673 46.0333 63.7881C45.7036 63.2481 45.765 62.0861 45.9408 60.9386ZM38.2146 46.9126C38.2146 43.8441 38.2178 39.7584 39.7576 36.4762C42.2228 37.8192 44.8893 38.748 47.6519 39.2261C45.9931 37.0996 44.7263 34.6913 43.9113 32.1151C43.9807 32.0802 44.0549 32.0488 44.1259 32.0151C48.1289 39.0921 57.9326 41.3686 57.9326 41.3686C54.1154 38.6219 55.289 35.3592 55.289 35.3592C57.0269 36.7612 58.9669 37.8886 61.0423 38.7027C61.6399 41.3958 61.8897 44.1552 61.7854 46.9126C61.7854 52.9599 56.5089 57.8623 50 57.8623C43.4911 57.8623 38.2146 52.9599 38.2146 46.9126ZM42.2816 63.479C42.6316 64.5789 43.1004 65.0444 43.3574 65.3019C44.8421 66.7895 48.1579 67.5263 50 67.5263C51.7455 67.5263 55.1579 66.7895 56.6316 65.3158C57 64.9474 57.3684 64.5789 57.7184 63.4789C61.0367 64.5423 64.0377 66.4246 66.448 68.9542C66.8148 69.3512 67.09 69.8249 67.2539 70.3413C67.4177 70.8578 67.4661 71.4043 67.3957 71.9417C67.3253 72.4792 67.1378 72.9944 66.8465 73.4505C66.5553 73.9066 66.1675 74.2922 65.711 74.5799C62.0098 76.8809 56.9419 78.2989 50 78.2989C43.0581 78.2989 37.9903 76.8809 34.289 74.5799C33.8325 74.2922 33.4447 73.9066 33.1535 73.4505C32.8622 72.9944 32.6747 72.4792 32.6043 71.9417C32.5339 71.4043 32.5823 70.8578 32.7462 70.3413C32.91 69.8249 33.1852 69.3512 33.552 68.9542C35.9623 66.4246 38.9634 64.5424 42.2816 63.479Z" fill="black"/>
<path d="M42.2816 63.479C42.6296 64.5728 43.0952 65.0392 43.3531 65.2976L43.3574 65.3019C44.8421 66.7895 48.1579 67.5263 50 67.5263C51.7455 67.5263 55.1579 66.7895 56.6316 65.3158C57 64.9474 57.3684 64.5789 57.7184 63.4789C61.0367 64.5423 64.0377 66.4246 66.448 68.9542C66.8148 69.3512 67.09 69.8249 67.2539 70.3413C67.4177 70.8578 67.4661 71.4043 67.3957 71.9417C67.3253 72.4792 67.1378 72.9944 66.8465 73.4505C66.5553 73.9066 66.1675 74.2922 65.711 74.5799C62.0098 76.8809 56.9419 78.2989 50 78.2989C43.0581 78.2989 37.9903 76.8809 34.289 74.5799C33.8325 74.2922 33.4447 73.9066 33.1535 73.4505C32.8622 72.9944 32.6747 72.4792 32.6043 71.9417C32.5339 71.4043 32.5823 70.8578 32.7462 70.3413C32.91 69.8249 33.1852 69.3512 33.552 68.9542C35.9623 66.4246 38.9634 64.5424 42.2816 63.479Z" fill="#BB30AD"/>
<path d="M45.9408 60.9386C48.6032 61.6313 51.3969 61.6313 54.0593 60.9386C54.2351 62.0861 54.2964 63.2481 53.9668 63.7881C53.4266 64.6731 51.032 64.9375 50 64.9375C48.968 64.9375 46.5734 64.673 46.0333 63.7881C45.7036 63.2481 45.765 62.0861 45.9408 60.9386Z" fill="#F2D7C4"/>
<path d="M38.2146 46.9126C38.2146 43.8441 38.2178 39.7584 39.7576 36.4762C42.2228 37.8192 44.8893 38.748 47.6519 39.2261C45.9931 37.0996 44.7263 34.6913 43.9113 32.1151C43.9807 32.0802 44.0549 32.0488 44.1259 32.0151C48.1289 39.0921 57.9326 41.3686 57.9326 41.3686C54.1154 38.6219 55.289 35.3592 55.289 35.3592C57.0269 36.7612 58.9669 37.8886 61.0423 38.7027C61.6399 41.3958 61.8897 44.1552 61.7854 46.9126C61.7854 52.9599 56.5089 57.8623 50 57.8623C43.4911 57.8623 38.2146 52.9599 38.2146 46.9126Z" fill="#FCDDC7"/>
<path d="M50 22.5789C66.7603 22.5789 66.7603 34.1276 66.7603 40.9864C66.7497 42.7488 66.261 45.8323 65.3469 47.3356C65.3512 47.1947 65.3583 47.0545 65.3583 46.9126C65.4661 43.8405 65.1753 40.7673 64.4931 37.771C64.3508 37.2372 64.0883 36.7437 63.7258 36.3287C63.3633 35.9137 62.9106 35.5883 62.403 35.3778C60.6701 34.7073 59.0488 33.7748 57.5951 32.6126C57.1552 32.2385 56.6319 31.9769 56.0699 31.8503C55.5079 31.7236 54.9237 31.7355 54.3673 31.885C53.8108 32.0346 53.2985 32.3173 52.874 32.7091C52.4496 33.1009 52.1255 33.5901 51.9294 34.1352C51.8537 34.3473 51.7899 34.5636 51.7382 34.7829C49.8988 33.6485 48.3539 32.09 47.231 30.2362C46.7864 29.4493 46.0632 28.8603 45.2059 28.5867C44.3485 28.3132 43.4202 28.3753 42.6064 28.7607L42.5741 28.7754C42.4851 28.8158 42.3965 28.8571 42.3111 28.9001C41.5912 29.263 41.0142 29.86 40.6737 30.5943C40.3331 31.3286 40.249 32.1571 40.4348 32.9455C39.6557 32.7941 38.8487 32.9081 38.1411 33.2694C37.4335 33.6307 36.8655 34.2188 36.5267 34.9409C34.6418 38.9589 34.6418 43.556 34.6418 46.9126C34.6418 47.0544 34.6488 47.1947 34.6531 47.3356C33.7391 45.8323 33.2504 44.1062 33.2398 42.3439C33.2397 35.4851 33.2397 22.5789 50 22.5789Z" fill="#4A2C23"/>
</svg>
